<?xml version="1.0" encoding="UTF-8" standalone="no"?>
<!-- Created with Inkscape (http://www.inkscape.org/) -->

<svg
   xmlns:dc="http://purl.org/dc/elements/1.1/"
   xmlns:cc="http://creativecommons.org/ns#"
   xmlns:rdf="http://www.w3.org/1999/02/22-rdf-syntax-ns#"
   xmlns:svg="http://www.w3.org/2000/svg"
   xmlns="http://www.w3.org/2000/svg"
   xmlns:sodipodi="http://sodipodi.sourceforge.net/DTD/sodipodi-0.dtd"
   xmlns:inkscape="http://www.inkscape.org/namespaces/inkscape"
   width="210mm"
   height="297mm"
   id="svg2"
   version="1.1"
   inkscape:version="0.48.5 r10040"
   sodipodi:docname="logo_escala.svg">
  <defs
     id="defs4" />
  <sodipodi:namedview
     id="base"
     pagecolor="#ffffff"
     bordercolor="#666666"
     borderopacity="1.0"
     inkscape:pageopacity="0.0"
     inkscape:pageshadow="2"
     inkscape:zoom="0.62598628"
     inkscape:cx="273.74646"
     inkscape:cy="246.22867"
     inkscape:document-units="px"
     inkscape:current-layer="layer1"
     showgrid="false"
     showguides="true"
     inkscape:guide-bbox="true"
     inkscape:window-width="1360"
     inkscape:window-height="702"
     inkscape:window-x="0"
     inkscape:window-y="27"
     inkscape:window-maximized="1" />
  <metadata
     id="metadata7">
    <rdf:RDF>
      <cc:Work
         rdf:about="">
        <dc:format>image/svg+xml</dc:format>
        <dc:type
           rdf:resource="http://purl.org/dc/dcmitype/StillImage" />
        <dc:title></dc:title>
      </cc:Work>
    </rdf:RDF>
  </metadata>
  <g
     inkscape:label="Capa 1"
     inkscape:groupmode="layer"
     id="layer1">
    <rect
       style="fill:#ffffff"
       id="rect3126"
       width="733.24292"
       height="1041.5564"
       x="7.9873953"
       y="6.0133715" />
    <g
       id="g3015"
       transform="translate(-37.767943,-249.20672)">
      <g
         transform="translate(8.5711416e-6,-6)"
         id="g3796">
        <path
           sodipodi:type="arc"
           style="fill:#000000;fill-rule:evenodd;stroke:#000000;stroke-width:1px;stroke-linecap:butt;stroke-linejoin:miter;stroke-opacity:1"
           id="path2985"
           sodipodi:cx="496.99506"
           sodipodi:cy="632.13873"
           sodipodi:rx="224.25386"
           sodipodi:ry="224.25386"
           d="m 721.24892,632.13873 c 0,123.85199 -100.40188,224.25386 -224.25386,224.25386 -123.85199,0 -224.25386,-100.40187 -224.25386,-224.25386 0,-123.85198 100.40187,-224.25386 224.25386,-224.25386 123.85198,0 224.25386,100.40188 224.25386,224.25386 z"
           transform="matrix(0.88986236,0,0,0.88986236,86.793624,-76.215199)" />
        <path
           transform="matrix(0.77862956,0,0,0.77862956,142.07578,-5.9006378)"
           d="m 721.24892,632.13873 c 0,123.85199 -100.40188,224.25386 -224.25386,224.25386 -123.85199,0 -224.25386,-100.40187 -224.25386,-224.25386 0,-123.85198 100.40187,-224.25386 224.25386,-224.25386 123.85198,0 224.25386,100.40188 224.25386,224.25386 z"
           sodipodi:ry="224.25386"
           sodipodi:rx="224.25386"
           sodipodi:cy="632.13873"
           sodipodi:cx="496.99506"
           id="path2991"
           style="fill:#f9f9f9;fill-rule:evenodd;stroke:#000000;stroke-width:1px;stroke-linecap:butt;stroke-linejoin:miter;stroke-opacity:1"
           sodipodi:type="arc" />
      </g>
      <g
         id="g3771">
        <rect
           style="fill:#ffffff"
           id="rect3761"
           width="478.18149"
           height="99.999939"
           x="114.15165"
           y="364.45343" />
        <text
           xml:space="preserve"
           style="font-size:106.72225189px;font-style:normal;font-weight:normal;line-height:125%;letter-spacing:0px;word-spacing:0px;fill:#000000;fill-opacity:1;stroke:none;font-family:Sans"
           x="85.99382"
           y="442.25436"
           id="text2987"
           sodipodi:linespacing="125%"><tspan
             sodipodi:role="line"
             id="tspan2989"
             x="85.99382"
             y="442.25436"
             style="font-weight:bold;-inkscape-font-specification:Sans Bold">open</tspan></text>
      </g>
      <text
         sodipodi:linespacing="125%"
         id="text3776"
         y="492.77832"
         x="390.0957"
         style="font-size:150.89082336px;font-style:normal;font-weight:normal;line-height:125%;letter-spacing:0px;word-spacing:0px;fill:#000000;fill-opacity:1;stroke:none;font-family:Sans"
         xml:space="preserve"><tspan
           style="font-weight:bold;-inkscape-font-specification:Sans Bold"
           y="492.77832"
           x="390.0957"
           id="tspan3778"
           sodipodi:role="line">XXI</tspan></text>
    </g>
    <g
       transform="matrix(0.5,0,0,0.5,326.75747,317.7952)"
       id="g3026">
      <g
         id="g3028"
         transform="translate(8.5711416e-6,-6)">
        <path
           transform="matrix(0.88986236,0,0,0.88986236,86.793624,-76.215199)"
           d="m 721.24892,632.13873 c 0,123.85199 -100.40188,224.25386 -224.25386,224.25386 -123.85199,0 -224.25386,-100.40187 -224.25386,-224.25386 0,-123.85198 100.40187,-224.25386 224.25386,-224.25386 123.85198,0 224.25386,100.40188 224.25386,224.25386 z"
           sodipodi:ry="224.25386"
           sodipodi:rx="224.25386"
           sodipodi:cy="632.13873"
           sodipodi:cx="496.99506"
           id="path3030"
           style="fill:#000000;fill-rule:evenodd;stroke:#000000;stroke-width:1px;stroke-linecap:butt;stroke-linejoin:miter;stroke-opacity:1"
           sodipodi:type="arc" />
        <path
           sodipodi:type="arc"
           style="fill:#f9f9f9;fill-rule:evenodd;stroke:#000000;stroke-width:1px;stroke-linecap:butt;stroke-linejoin:miter;stroke-opacity:1"
           id="path3032"
           sodipodi:cx="496.99506"
           sodipodi:cy="632.13873"
           sodipodi:rx="224.25386"
           sodipodi:ry="224.25386"
           d="m 721.24892,632.13873 c 0,123.85199 -100.40188,224.25386 -224.25386,224.25386 -123.85199,0 -224.25386,-100.40187 -224.25386,-224.25386 0,-123.85198 100.40187,-224.25386 224.25386,-224.25386 123.85198,0 224.25386,100.40188 224.25386,224.25386 z"
           transform="matrix(0.77862956,0,0,0.77862956,142.07578,-5.9006378)" />
      </g>
      <g
         id="g3034">
        <rect
           y="364.45343"
           x="114.15165"
           height="99.999939"
           width="478.18149"
           id="rect3036"
           style="fill:#ffffff" />
        <text
           sodipodi:linespacing="125%"
           id="text3038"
           y="442.25436"
           x="85.99382"
           style="font-size:106.72225189px;font-style:normal;font-weight:normal;line-height:125%;letter-spacing:0px;word-spacing:0px;fill:#000000;fill-opacity:1;stroke:none;font-family:Sans"
           xml:space="preserve"><tspan
             style="font-weight:bold;-inkscape-font-specification:Sans Bold"
             y="442.25436"
             x="85.99382"
             id="tspan3040"
             sodipodi:role="line">open</tspan></text>
      </g>
      <text
         xml:space="preserve"
         style="font-size:150.89082336px;font-style:normal;font-weight:normal;line-height:125%;letter-spacing:0px;word-spacing:0px;fill:#000000;fill-opacity:1;stroke:none;font-family:Sans"
         x="390.0957"
         y="492.77832"
         id="text3042"
         sodipodi:linespacing="125%"><tspan
           sodipodi:role="line"
           id="tspan3044"
           x="390.0957"
           y="492.77832"
           style="font-weight:bold;-inkscape-font-specification:Sans Bold">XXI</tspan></text>
    </g>
    <g
       transform="matrix(0.25,0,0,0.25,509.02018,614.72179)"
       id="g3046">
      <g
         id="g3048"
         transform="translate(8.5711416e-6,-6)">
        <path
           transform="matrix(0.88986236,0,0,0.88986236,86.793624,-76.215199)"
           d="m 721.24892,632.13873 c 0,123.85199 -100.40188,224.25386 -224.25386,224.25386 -123.85199,0 -224.25386,-100.40187 -224.25386,-224.25386 0,-123.85198 100.40187,-224.25386 224.25386,-224.25386 123.85198,0 224.25386,100.40188 224.25386,224.25386 z"
           sodipodi:ry="224.25386"
           sodipodi:rx="224.25386"
           sodipodi:cy="632.13873"
           sodipodi:cx="496.99506"
           id="path3050"
           style="fill:#000000;fill-rule:evenodd;stroke:#000000;stroke-width:1px;stroke-linecap:butt;stroke-linejoin:miter;stroke-opacity:1"
           sodipodi:type="arc" />
        <path
           sodipodi:type="arc"
           style="fill:#f9f9f9;fill-rule:evenodd;stroke:#000000;stroke-width:1px;stroke-linecap:butt;stroke-linejoin:miter;stroke-opacity:1"
           id="path3052"
           sodipodi:cx="496.99506"
           sodipodi:cy="632.13873"
           sodipodi:rx="224.25386"
           sodipodi:ry="224.25386"
           d="m 721.24892,632.13873 c 0,123.85199 -100.40188,224.25386 -224.25386,224.25386 -123.85199,0 -224.25386,-100.40187 -224.25386,-224.25386 0,-123.85198 100.40187,-224.25386 224.25386,-224.25386 123.85198,0 224.25386,100.40188 224.25386,224.25386 z"
           transform="matrix(0.77862956,0,0,0.77862956,142.07578,-5.9006378)" />
      </g>
      <g
         id="g3054">
        <rect
           y="364.45343"
           x="114.15165"
           height="99.999939"
           width="478.18149"
           id="rect3056"
           style="fill:#ffffff" />
        <text
           sodipodi:linespacing="125%"
           id="text3058"
           y="442.25436"
           x="85.99382"
           style="font-size:106.72225189px;font-style:normal;font-weight:normal;line-height:125%;letter-spacing:0px;word-spacing:0px;fill:#000000;fill-opacity:1;stroke:none;font-family:Sans"
           xml:space="preserve"><tspan
             style="font-weight:bold;-inkscape-font-specification:Sans Bold"
             y="442.25436"
             x="85.99382"
             id="tspan3060"
             sodipodi:role="line">open</tspan></text>
      </g>
      <text
         xml:space="preserve"
         style="font-size:150.89082336px;font-style:normal;font-weight:normal;line-height:125%;letter-spacing:0px;word-spacing:0px;fill:#000000;fill-opacity:1;stroke:none;font-family:Sans"
         x="390.0957"
         y="492.77832"
         id="text3062"
         sodipodi:linespacing="125%"><tspan
           sodipodi:role="line"
           id="tspan3064"
           x="390.0957"
           y="492.77832"
           style="font-weight:bold;-inkscape-font-specification:Sans Bold">XXI</tspan></text>
    </g>
    <g
       transform="matrix(0.12496559,0,0,0.12496559,600.16972,776.62724)"
       id="g3066">
      <g
         id="g3068"
         transform="translate(8.5711416e-6,-6)">
        <path
           transform="matrix(0.88986236,0,0,0.88986236,86.793624,-76.215199)"
           d="m 721.24892,632.13873 c 0,123.85199 -100.40188,224.25386 -224.25386,224.25386 -123.85199,0 -224.25386,-100.40187 -224.25386,-224.25386 0,-123.85198 100.40187,-224.25386 224.25386,-224.25386 123.85198,0 224.25386,100.40188 224.25386,224.25386 z"
           sodipodi:ry="224.25386"
           sodipodi:rx="224.25386"
           sodipodi:cy="632.13873"
           sodipodi:cx="496.99506"
           id="path3070"
           style="fill:#000000;fill-rule:evenodd;stroke:#000000;stroke-width:1px;stroke-linecap:butt;stroke-linejoin:miter;stroke-opacity:1"
           sodipodi:type="arc" />
        <path
           sodipodi:type="arc"
           style="fill:#f9f9f9;fill-rule:evenodd;stroke:#000000;stroke-width:1px;stroke-linecap:butt;stroke-linejoin:miter;stroke-opacity:1"
           id="path3072"
           sodipodi:cx="496.99506"
           sodipodi:cy="632.13873"
           sodipodi:rx="224.25386"
           sodipodi:ry="224.25386"
           d="m 721.24892,632.13873 c 0,123.85199 -100.40188,224.25386 -224.25386,224.25386 -123.85199,0 -224.25386,-100.40187 -224.25386,-224.25386 0,-123.85198 100.40187,-224.25386 224.25386,-224.25386 123.85198,0 224.25386,100.40188 224.25386,224.25386 z"
           transform="matrix(0.77862956,0,0,0.77862956,142.07578,-5.9006378)" />
      </g>
      <g
         id="g3074">
        <rect
           y="364.45343"
           x="114.15165"
           height="99.999939"
           width="478.18149"
           id="rect3076"
           style="fill:#ffffff" />
        <text
           sodipodi:linespacing="125%"
           id="text3078"
           y="442.25436"
           x="85.99382"
           style="font-size:106.72225189px;font-style:normal;font-weight:normal;line-height:125%;letter-spacing:0px;word-spacing:0px;fill:#000000;fill-opacity:1;stroke:none;font-family:Sans"
           xml:space="preserve"><tspan
             style="font-weight:bold;-inkscape-font-specification:Sans Bold"
             y="442.25436"
             x="85.99382"
             id="tspan3080"
             sodipodi:role="line">open</tspan></text>
      </g>
      <text
         xml:space="preserve"
         style="font-size:150.89082336px;font-style:normal;font-weight:normal;line-height:125%;letter-spacing:0px;word-spacing:0px;fill:#000000;fill-opacity:1;stroke:none;font-family:Sans"
         x="390.0957"
         y="492.77832"
         id="text3082"
         sodipodi:linespacing="125%"><tspan
           sodipodi:role="line"
           id="tspan3084"
           x="390.0957"
           y="492.77832"
           style="font-weight:bold;-inkscape-font-specification:Sans Bold">XXI</tspan></text>
    </g>
    <g
       transform="matrix(0.05,0,0,0.05,654.79009,874.52485)"
       id="g3086">
      <g
         id="g3088"
         transform="translate(8.5711416e-6,-6)">
        <path
           transform="matrix(0.88986236,0,0,0.88986236,86.793624,-76.215199)"
           d="m 721.24892,632.13873 c 0,123.85199 -100.40188,224.25386 -224.25386,224.25386 -123.85199,0 -224.25386,-100.40187 -224.25386,-224.25386 0,-123.85198 100.40187,-224.25386 224.25386,-224.25386 123.85198,0 224.25386,100.40188 224.25386,224.25386 z"
           sodipodi:ry="224.25386"
           sodipodi:rx="224.25386"
           sodipodi:cy="632.13873"
           sodipodi:cx="496.99506"
           id="path3090"
           style="fill:#000000;fill-rule:evenodd;stroke:#000000;stroke-width:1px;stroke-linecap:butt;stroke-linejoin:miter;stroke-opacity:1"
           sodipodi:type="arc" />
        <path
           sodipodi:type="arc"
           style="fill:#f9f9f9;fill-rule:evenodd;stroke:#000000;stroke-width:1px;stroke-linecap:butt;stroke-linejoin:miter;stroke-opacity:1"
           id="path3092"
           sodipodi:cx="496.99506"
           sodipodi:cy="632.13873"
           sodipodi:rx="224.25386"
           sodipodi:ry="224.25386"
           d="m 721.24892,632.13873 c 0,123.85199 -100.40188,224.25386 -224.25386,224.25386 -123.85199,0 -224.25386,-100.40187 -224.25386,-224.25386 0,-123.85198 100.40187,-224.25386 224.25386,-224.25386 123.85198,0 224.25386,100.40188 224.25386,224.25386 z"
           transform="matrix(0.77862956,0,0,0.77862956,142.07578,-5.9006378)" />
      </g>
      <g
         id="g3094">
        <rect
           y="364.45343"
           x="114.15165"
           height="99.999939"
           width="478.18149"
           id="rect3096"
           style="fill:#ffffff" />
        <text
           sodipodi:linespacing="125%"
           id="text3098"
           y="442.25436"
           x="85.99382"
           style="font-size:106.72225189px;font-style:normal;font-weight:normal;line-height:125%;letter-spacing:0px;word-spacing:0px;fill:#000000;fill-opacity:1;stroke:none;font-family:Sans"
           xml:space="preserve"><tspan
             style="font-weight:bold;-inkscape-font-specification:Sans Bold"
             y="442.25436"
             x="85.99382"
             id="tspan3100"
             sodipodi:role="line">open</tspan></text>
      </g>
      <text
         xml:space="preserve"
         style="font-size:150.89082336px;font-style:normal;font-weight:normal;line-height:125%;letter-spacing:0px;word-spacing:0px;fill:#000000;fill-opacity:1;stroke:none;font-family:Sans"
         x="390.0957"
         y="492.77832"
         id="text3102"
         sodipodi:linespacing="125%"><tspan
           sodipodi:role="line"
           id="tspan3104"
           x="390.0957"
           y="492.77832"
           style="font-weight:bold;-inkscape-font-specification:Sans Bold">XXI</tspan></text>
    </g>
    <g
       transform="matrix(0.025,0,0,0.025,673.00524,928.47526)"
       id="g3106">
      <g
         id="g3108"
         transform="translate(8.5711416e-6,-6)">
        <path
           transform="matrix(0.88986236,0,0,0.88986236,86.793624,-76.215199)"
           d="m 721.24892,632.13873 c 0,123.85199 -100.40188,224.25386 -224.25386,224.25386 -123.85199,0 -224.25386,-100.40187 -224.25386,-224.25386 0,-123.85198 100.40187,-224.25386 224.25386,-224.25386 123.85198,0 224.25386,100.40188 224.25386,224.25386 z"
           sodipodi:ry="224.25386"
           sodipodi:rx="224.25386"
           sodipodi:cy="632.13873"
           sodipodi:cx="496.99506"
           id="path3110"
           style="fill:#000000;fill-rule:evenodd;stroke:#000000;stroke-width:1px;stroke-linecap:butt;stroke-linejoin:miter;stroke-opacity:1"
           sodipodi:type="arc" />
        <path
           sodipodi:type="arc"
           style="fill:#f9f9f9;fill-rule:evenodd;stroke:#000000;stroke-width:1px;stroke-linecap:butt;stroke-linejoin:miter;stroke-opacity:1"
           id="path3112"
           sodipodi:cx="496.99506"
           sodipodi:cy="632.13873"
           sodipodi:rx="224.25386"
           sodipodi:ry="224.25386"
           d="m 721.24892,632.13873 c 0,123.85199 -100.40188,224.25386 -224.25386,224.25386 -123.85199,0 -224.25386,-100.40187 -224.25386,-224.25386 0,-123.85198 100.40187,-224.25386 224.25386,-224.25386 123.85198,0 224.25386,100.40188 224.25386,224.25386 z"
           transform="matrix(0.77862956,0,0,0.77862956,142.07578,-5.9006378)" />
      </g>
      <g
         id="g3114">
        <rect
           y="364.45343"
           x="114.15165"
           height="99.999939"
           width="478.18149"
           id="rect3116"
           style="fill:#ffffff" />
        <text
           sodipodi:linespacing="125%"
           id="text3118"
           y="442.25436"
           x="85.99382"
           style="font-size:106.72225189px;font-style:normal;font-weight:normal;line-height:125%;letter-spacing:0px;word-spacing:0px;fill:#000000;fill-opacity:1;stroke:none;font-family:Sans"
           xml:space="preserve"><tspan
             style="font-weight:bold;-inkscape-font-specification:Sans Bold"
             y="442.25436"
             x="85.99382"
             id="tspan3120"
             sodipodi:role="line">open</tspan></text>
      </g>
      <text
         xml:space="preserve"
         style="font-size:150.89082336px;font-style:normal;font-weight:normal;line-height:125%;letter-spacing:0px;word-spacing:0px;fill:#000000;fill-opacity:1;stroke:none;font-family:Sans"
         x="390.0957"
         y="492.77832"
         id="text3122"
         sodipodi:linespacing="125%"><tspan
           sodipodi:role="line"
           id="tspan3124"
           x="390.0957"
           y="492.77832"
           style="font-weight:bold;-inkscape-font-specification:Sans Bold">XXI</tspan></text>
    </g>
  </g>
</svg>
